<svg width="68" height="70" viewBox="0 0 68 70" fill="none" xmlns="http://www.w3.org/2000/svg">
<path d="M60.9027 69.9346C57.4005 69.9346 54.324 69.8936 51.2512 69.957C50.222 69.9756 49.8852 69.3156 49.4557 68.637L34.6472 45.2851C33.5365 43.5513 33.5366 43.5587 32.4925 45.2329C27.5983 52.9696 22.6745 60.684 17.8358 68.4543C17.1176 69.6027 16.355 70.0352 15.0296 69.9681C12.7528 69.8488 10.4686 69.9681 8.19176 69.9197C7.68087 69.9197 6.98116 70.2291 6.71091 69.6326C6.48508 69.159 7.0478 68.7564 7.29954 68.3537C11.3966 61.8734 15.4998 55.3957 19.6091 48.9204C19.835 48.5699 20.0386 48.2045 20.2533 47.8429C19.6795 47.3544 19.1093 47.5558 18.591 47.5558C12.986 47.5371 7.37729 47.4961 1.77227 47.5781C0.358052 47.6005 -0.0788039 47.1717 0.0433664 45.7921C0.169241 44.2461 0.169241 42.6924 0.0433664 41.1464C-0.101017 39.4797 0.387666 38.9502 2.13877 38.9651C13.1711 39.0509 24.1998 39.0062 35.2321 39.0062C45.2279 39.0062 55.1977 39.0323 65.1786 38.9801C66.5707 38.9801 67.1926 39.2485 67.0667 40.7959C66.9334 42.4661 66.9334 44.1443 67.0667 45.8145C67.1778 47.2761 66.6003 47.5632 65.2712 47.5483C59.8513 47.4775 54.4277 47.5185 49.004 47.5185H46.7606L60.9027 69.9346Z" fill="white"/>
<path d="M61.1219 0.0241947L47.0538 22.2688H59.2153C61.3736 22.2688 63.5283 22.3173 65.6829 22.2464C66.7417 22.2129 67.0786 22.5857 67.0416 23.6297C66.9712 25.494 66.9453 27.3583 67.0416 29.2226C67.1156 30.5537 66.6269 30.878 65.3645 30.8669C58.4008 30.8109 51.4408 30.8408 44.4808 30.8408C30.3128 30.8408 16.1447 30.8184 1.98034 30.8743C0.477278 30.8743 -0.115058 30.5499 0.0182187 28.9504C0.14225 27.2811 0.14225 25.6048 0.0182187 23.9355C-0.059526 22.6491 0.336603 22.239 1.65086 22.2539C7.37806 22.321 13.1089 22.2837 18.8361 22.28C19.1323 22.28 19.4285 22.2464 20.0764 22.2091L6.05269 0.0540295C9.65856 0.0540295 12.9387 0.0540295 16.2224 0.0540295C16.9629 0.0540295 17.148 0.799737 17.4627 1.29564C22.4852 9.2499 27.5041 17.1942 32.5192 25.1286C32.808 25.5835 33.1301 26.016 33.5854 26.676C35.766 23.2494 37.854 19.9869 39.9272 16.717C43.1665 11.6014 46.4207 6.48952 49.6157 1.34038C50.2006 0.39705 50.8189 -0.0317328 51.9628 0.00182421C54.906 0.080124 57.8418 0.0241947 61.1219 0.0241947Z" fill="white"/>
</svg>
