<svg width="75" height="76" viewBox="0 0 75 76" fill="none" xmlns="http://www.w3.org/2000/svg">
<path d="M2.46659 33.4228L0 32.1127L17.0288 0L33.1966 32.1406L30.7021 33.3948L16.9636 6.08279L2.46659 33.4228Z" fill="#FF83D5"/>
<path d="M73.3854 34.1624H41.9922V3.04102H44.7846V31.37H73.3854V34.1624Z" fill="#FF83D5"/>
<path d="M32.6718 42.54H1.23438V45.3324H32.6718V42.54Z" fill="#FF83D5"/>
<path d="M32.6718 57.6279H1.23438V60.4203H32.6718V57.6279Z" fill="#FF83D5"/>
<path d="M32.6718 72.7168H1.23438V75.5092H32.6718V72.7168Z" fill="#FF83D5"/>
<path d="M60.0012 58.8428L74.1934 73.0352L72.2178 75.0085L58.0279 60.8184L42.8467 75.9998L40.8711 74.0265L56.0546 58.8451L41.2318 44.0221L43.205 42.0488L58.0279 56.8695L72.8484 42.0488L74.8217 44.0221L60.0012 58.8428Z" fill="#FF83D5"/>
</svg>
