<svg width="80" height="80" viewBox="0 0 80 80" fill="none" xmlns="http://www.w3.org/2000/svg">
<circle cx="40" cy="40" r="40" fill="#5846FB"/>
<path d="M37.4872 21.1112L27.2275 42.9312C27.056 43.296 26.9794 43.6982 27.0048 44.1004C27.0302 44.5027 27.1568 44.892 27.3728 45.2323C27.5889 45.5726 27.8874 45.8528 28.2406 46.0469C28.5939 46.241 28.9905 46.3427 29.3936 46.3426H36.5847L32.0017 57.8044C31.3278 59.4894 33.5451 60.8092 34.7051 59.4132L51.4604 39.2483C52.3761 38.1463 51.5929 36.4754 50.1596 36.4754H43.8288L52.3488 21.7736C52.453 21.5941 52.5081 21.3903 52.5084 21.1827C52.5088 20.9752 52.4544 20.7712 52.3508 20.5913C52.2472 20.4115 52.098 20.2621 51.9183 20.1583C51.7385 20.0545 51.5346 19.9999 51.3271 20H39.2384C38.8712 20.0003 38.5117 20.105 38.2017 20.3017C37.8916 20.4984 37.6439 20.7791 37.4872 21.1112Z" fill="white"/>
</svg>
