<svg width="80" height="80" viewBox="0 0 80 80" fill="none" xmlns="http://www.w3.org/2000/svg">
<circle cx="40" cy="40" r="40" fill="#5846FB"/>
<path d="M33.5184 25.9885V20H37.502V25.9558H39.7467V20.0044H43.7479V26.0167C44.3369 26.105 44.8959 26.1827 45.4566 26.2816C47.0462 26.5738 48.5571 27.0576 49.9665 27.8708C54.1584 30.2792 53.6224 35.7371 50.4963 38.1226L50.0212 38.4872C50.4168 38.6585 50.7869 38.7883 51.1277 38.9728C53.5844 40.3033 54.8366 42.3648 54.8472 45.1652C54.8582 46.2855 54.6843 47.3999 54.3324 48.4636C53.4281 51.144 51.4703 52.6519 48.8238 53.3803C47.365 53.7811 45.8717 53.8915 44.3669 53.9029H43.8027V60H39.9048V53.9347H37.6371V59.9982H33.6412V53.9241H26.4V49.6952H28.8108C30.2749 49.6952 30.6502 49.3209 30.6511 47.8412C30.6511 42.4427 30.6511 37.0437 30.6511 31.6441C30.6511 30.5352 30.3138 30.1574 29.1958 30.1132C28.2854 30.0779 27.3714 30.1018 26.4583 30.0991H26V25.9929L33.5184 25.9885ZM37.5276 49.2388C37.577 49.2635 37.6026 49.2882 37.6282 49.2882C39.5516 49.244 41.4811 49.267 43.3973 49.1266C44.6336 49.0383 45.7613 48.5192 46.5658 47.4942C48.2551 45.3444 47.5221 42.7991 44.9286 41.994C44.057 41.7229 43.1174 41.6028 42.2025 41.5578C40.779 41.4863 39.3502 41.5375 37.9232 41.5393C37.796 41.5393 37.6689 41.5561 37.5276 41.5666V49.2388ZM37.5276 37.4189C39.1233 37.4189 40.6678 37.4693 42.2078 37.4057C43.8786 37.336 45.2853 35.9304 45.4619 34.2795C45.6624 32.4096 44.8818 31.2618 43.0132 30.7065C41.2188 30.1768 39.3785 30.3887 37.5285 30.3428L37.5276 37.4189Z" fill="white"/>
</svg>
