<svg width="74" height="74" viewBox="0 0 74 74" fill="none" xmlns="http://www.w3.org/2000/svg">
<path d="M36.4432 73.998C16.0993 73.7905 -0.238915 56.9852 0.00264442 36.4697C0.242316 16.1013 17.0628 -0.27664 37.5641 0.00354198C57.8994 0.280894 74.2122 17.0229 73.998 37.5074C73.7857 57.8691 56.97 74.2074 36.4432 73.998ZM6.35301 36.9932C6.35301 53.873 20.0766 67.5916 36.965 67.6019C53.8231 67.6123 67.5656 53.8966 67.576 37.0508C67.5863 20.1861 53.8392 6.41376 36.9886 6.40905C20.1058 6.40339 6.35018 20.137 6.35301 36.9932Z" fill="#FFC200"/>
<path d="M29.7076 21.7851V15.3862H33.9641V21.7502H36.3627V15.391H40.6381V21.8153C41.2675 21.9097 41.8648 21.9927 42.4639 22.0983C44.1624 22.4106 45.7769 22.9276 47.2829 23.7964C51.7621 26.3699 51.1893 32.2019 47.849 34.7509L47.3414 35.1405C47.7641 35.3235 48.1595 35.4622 48.5237 35.6593C51.1488 37.081 52.4868 39.2838 52.4981 42.2762C52.5099 43.4732 52.324 44.664 51.948 45.8006C50.9817 48.6647 48.8898 50.276 46.0619 51.0542C44.503 51.4825 42.9074 51.6005 41.2996 51.6127H40.6966V58.1277H36.5316V51.6467H34.1085V58.1258H29.8387V51.6354H22.1013V47.1166H24.6773C26.2417 47.1166 26.6428 46.7166 26.6437 45.1355C26.6437 39.3671 26.6437 33.5981 26.6437 27.8284C26.6437 26.6435 26.2833 26.2397 25.0887 26.1926C24.1158 26.1548 23.1392 26.1803 22.1636 26.1775H21.6738V21.7899L29.7076 21.7851ZM33.9915 46.6289C34.0443 46.6553 34.0717 46.6817 34.099 46.6817C36.1542 46.6345 38.2159 46.6591 40.2635 46.5091C41.5845 46.4147 42.7895 45.86 43.6491 44.7648C45.4542 42.4677 44.671 39.7479 41.8997 38.8876C40.9684 38.5979 39.9644 38.4696 38.9868 38.4215C37.4658 38.3451 35.939 38.3998 34.4142 38.4017C34.2783 38.4017 34.1424 38.4196 33.9915 38.431V46.6289ZM33.9915 33.999C35.6965 33.999 37.3469 34.0528 38.9925 33.9848C40.7778 33.9103 42.2809 32.4085 42.4696 30.6444C42.6838 28.6463 41.8497 27.4199 39.853 26.8265C37.9357 26.2605 35.9692 26.4869 33.9924 26.4379L33.9915 33.999Z" fill="#FFC200"/>
</svg>
