<svg width="51" height="64" viewBox="0 0 51 64" fill="none" xmlns="http://www.w3.org/2000/svg">
<path d="M50.063 14.3022C50.063 14.3022 49.0079 15.1656 48.7202 15.1656C46.9939 11.7987 45.2678 8.6043 43.2537 5.32372C43.2537 4.37408 42.2947 4.11523 40.8561 3.85624C35.2689 3.02084 29.6331 2.47316 23.9765 2.21593C23.0175 2.21593 22.7297 2.21571 22.7297 3.33801C22.7297 9.12219 21.7706 27.7697 21.7706 30.8777C27.525 30.8777 42.0069 31.482 46.1308 31.482C46.1308 32 46.1308 33.1224 45.1717 33.2088C40.3764 33.6404 28.9636 34.2446 22.442 34.6762C21.5788 34.6762 21.3869 34.6764 21.3869 35.626C21.3869 38.9929 21.3869 57.7267 21.3869 60.0576C21.3869 62.3886 21.9625 61.3527 22.8257 61.5254L30.5941 62.5613C30.5941 62.5613 31.2655 63.2518 31.2655 63.7698C27.717 63.7698 21.6747 63.7698 14.8653 63.7698C8.056 63.7698 3.83634 63.7698 0.0959998 63.7698C0.119133 63.2498 0.358573 62.7569 0.76712 62.3887L5.46672 61.6115C6.32987 61.6115 6.52164 61.18 6.61755 60.144C6.61755 56.5181 6.61755 36.0576 6.61755 31.741C6.61755 27.4245 6.61757 7.3093 6.04213 3.94239C6.04213 2.99275 6.04198 2.56124 4.98701 2.47491L0 1.52513C0 1.52513 0 0.748203 0 0.230216H7.86437H13.6185C37.4991 0.230216 48.2407 0.230216 49.967 0.230216C51.6933 0.230216 50.7344 0.2301 50.7344 0.920749L50.063 14.3022Z" fill="#FDFDFD"/>
</svg>
