<svg width="72" height="72" viewBox="0 0 72 72" fill="none" xmlns="http://www.w3.org/2000/svg">
<path d="M71.9993 9.28095C72.0258 11.4375 71.2882 13.534 69.917 15.1999C68.5458 16.8657 66.6292 17.9937 64.5059 18.3845C62.3826 18.7752 60.1894 18.4036 58.314 17.3352C56.4385 16.2669 55.0015 14.5706 54.2569 12.5462H44.5554C43.8991 14.2851 42.728 15.783 41.198 16.8402C39.6679 17.8974 37.8518 18.4638 35.9914 18.4638C34.131 18.4638 32.3149 17.8974 30.7849 16.8402C29.2549 15.783 28.0837 14.2851 27.4274 12.5462H17.726C17.2753 13.7471 16.5767 14.8398 15.6757 15.7534C14.7747 16.667 13.6913 17.381 12.496 17.849V27.5141C14.2454 28.1648 15.7538 29.3343 16.8188 30.8658C17.8839 32.3972 18.4547 34.2174 18.4547 36.0822C18.4547 37.9469 17.8839 39.7671 16.8188 41.2985C15.7538 42.83 14.2454 43.9995 12.496 44.6502V54.2892C13.6913 54.7573 14.7747 55.4713 15.6757 56.3848C16.5767 57.2984 17.2753 58.3911 17.726 59.592H27.4274C28.1914 57.5961 29.631 55.9306 31.4963 54.8847C33.3616 53.8388 35.5347 53.4785 37.6381 53.8666C39.7416 54.2546 41.6426 55.3664 43.011 57.0088C44.3793 58.6512 45.1285 60.7205 45.1285 62.8573C45.1285 64.9941 44.3793 67.0634 43.011 68.7058C41.6426 70.3482 39.7416 71.46 37.6381 71.848C35.5347 72.236 33.3616 71.8758 31.4963 70.8299C29.631 69.7839 28.1914 68.1184 27.4274 66.1225H17.726C17.1784 67.5475 16.2825 68.813 15.1198 69.8033C13.9571 70.7937 12.5647 71.4775 11.0696 71.7924C9.57444 72.1073 8.02419 72.0433 6.56021 71.6062C5.09622 71.169 3.76509 70.3727 2.68823 69.2898C1.61137 68.2069 0.82305 66.8719 0.39518 65.4066C-0.0326905 63.9413 -0.0864931 62.3922 0.238668 60.9008C0.563829 59.4094 1.25762 58.023 2.25674 56.8682C3.25587 55.7133 4.52853 54.8267 5.95866 54.2892V44.6241C4.20928 43.9734 2.70092 42.8039 1.63586 41.2724C0.570808 39.741 0 37.9208 0 36.056C0 34.1913 0.570808 32.3711 1.63586 30.8397C2.70092 29.3082 4.20928 28.1387 5.95866 27.488V17.8229C4.52853 17.2854 3.25587 16.3988 2.25674 15.2439C1.25762 14.0891 0.563829 12.7027 0.238668 11.2113C-0.0864931 9.71987 -0.0326905 8.17086 0.39518 6.70554C0.82305 5.24022 1.61137 3.90523 2.68823 2.82233C3.76509 1.73943 5.09622 0.943106 6.56021 0.505959C8.02419 0.0688116 9.57444 0.00477511 11.0696 0.319677C12.5647 0.63458 13.9571 1.31839 15.1198 2.30876C16.2825 3.29914 17.1784 4.56457 17.726 5.98959H27.4274C28.0837 4.25065 29.2549 2.75278 30.7849 1.69557C32.3149 0.63837 34.131 0.072053 35.9914 0.072053C37.8518 0.072053 39.6679 0.63837 41.198 1.69557C42.728 2.75278 43.8991 4.25065 44.5554 5.98959H54.2569C55.0015 3.96519 56.4385 2.26891 58.314 1.20056C60.1894 0.132212 62.3826 -0.239423 64.5059 0.151333C66.6292 0.542089 68.5458 1.67007 69.917 3.33593C71.2882 5.0018 72.0258 7.09829 71.9993 9.25485V9.28095Z" fill="#FFC200"/>
</svg>
