<svg width="83" height="60" viewBox="0 0 83 60" fill="none" xmlns="http://www.w3.org/2000/svg">
<path d="M63.9076 47.9373C59.2641 47.7669 54.8677 45.8026 51.6429 42.4573C48.4181 39.112 46.6162 34.6465 46.6162 30C46.6162 25.3535 48.4181 20.888 51.6429 17.5427C54.8677 14.1974 59.2641 12.233 63.9076 12.0627H80.7954V0H30.1319C22.3227 0.221477 14.9076 3.47928 9.46232 9.08121C4.01701 14.6831 0.970703 22.1876 0.970703 30C0.970703 37.8124 4.01701 45.3168 9.46232 50.9188C14.9076 56.5207 22.3227 59.7785 30.1319 60H82.4359V47.9373H63.9076ZM39.7821 47.9373H29.8666C25.2231 47.7669 20.8267 45.8026 17.6019 42.4573C14.3771 39.112 12.5752 34.6465 12.5752 30C12.5752 25.3535 14.3771 20.888 17.6019 17.5427C20.8267 14.1974 25.2231 12.233 29.8666 12.0627H39.951C36.0693 17.2373 33.9709 23.5313 33.9709 30C33.9709 36.4686 36.0693 42.7627 39.951 47.9373H39.7821Z" fill="#1668E8"/>
</svg>
